#!OML:ASF G:\JayActor3\Patient Classification 1\Patient 1\Session 5\male.ASF
:FULLY-SPECIFIED
:DEGREES
648
root 3.56848 14.7445 -7.6996 403.895 -79.6051 -62.8827
lowerback 5.78994 -1.61753 -0.644303
upperback 9.18317 -2.69318 2.38712
thorax 6.49377 -1.66043 2.83671
lowerneck 12.1891 -0.661389 4.65429
upperneck 0.821714 -0.34728 0.17845
head -1.8346 -0.231618 -0.726381
rclavicle -3.17559e-014 7.15625e-015
rhumerus -22.9538 -7.01299 -58.7177
rradius 109.203
rwrist -62.0466
rhand 8.6686 -18.5061
rfingers 7.12502
rthumb 33.8625 -45.3203
lclavicle -3.17559e-014 7.15625e-015
lhumerus -14.9484 -7.81784 79.2794
lradius 113.793
lwrist 81.387
lhand 25.1061 43.1221
lfingers 7.12502
lthumb 49.2586 64.7256
rfemur -0.548398 -26.9365 14.6697
rtibia 66.9817
rfoot -35.1673 -13.3467
rtoes -15.8726
lfemur -10.9466 18.5339 10.1615
ltibia 67.6245
lfoot -23.9549 -8.39502
ltoes -16.864
649
root 3.56715 14.8243 -7.67268 404.255 -79.8598 -62.9187
lowerback 5.54965 -1.64415 -0.551654
upperback 8.96141 -2.7088 2.41561
thorax 6.38687 -1.65213 2.81001
lowerneck 11.8763 -0.632185 4.74195
upperneck 1.1043 -0.32757 -0.157339
head -1.6874 -0.206805 -0.848419
rclavicle 5.08143e-015 1.11319e-014
rhumerus -22.9277 -4.60276 -59.2082
rradius 109.728
rwrist -60.0646
rhand 10.2327 -17.9882
rfingers 7.12502
rthumb 35.347 -44.4625
lclavicle 5.08143e-015 1.11319e-014
lhumerus -16.2624 -9.19818 79.6648
lradius 113.527
lwrist 78.728
lhand 26.6995 43.4296
lfingers 7.12502
lthumb 50.7167 64.2677
rfemur -0.473127 -26.3976 14.9103
rtibia 65.7738
rfoot -35.1222 -13.7381
rtoes -15.0332
lfemur -10.4821 18.3333 9.41466
ltibia 66.3593
lfoot -23.8945 -7.64971
ltoes -16.4986
650
root 3.56637 14.904 -7.6446 404.625 -80.1288 -62.9555
lowerback 5.3168 -1.6669 -0.457325
upperback 8.73604 -2.71913 2.43759
thorax 6.27164 -1.64105 2.77582
lowerneck 11.542 -0.600489 4.82659
upperneck 1.39229 -0.304571 -0.488187
head -1.53558 -0.181437 -0.967903
rclavicle -5.26779e-014 9.54166e-015
rhumerus -22.9435 -2.15089 -59.6971
rradius 110.151
rwrist -58.0301
rhand 11.69 -17.4585
rfingers 7.12502
rthumb 36.7274 -43.5929
lclavicle -5.26779e-014 9.54166e-015
lhumerus -17.5662 -10.5644 80.0873
lradius 113.165
lwrist 75.9929
lhand 28.1774 43.7222
lfingers 7.12502
lthumb 52.0611 63.7914
rfemur -0.408543 -25.8429 15.1271
rtibia 64.5718
rfoot -35.0598 -14.1181
rtoes -14.199
lfemur -10.0179 18.1416 8.65674
ltibia 65.0731
lfoot -23.8145 -6.92149
ltoes -16.1135
651
root 3.56618 14.9833 -7.61553 404.995 -80.4092 -62.984
lowerback 5.09373 -1.68695 -0.363527
upperback 8.50767 -2.72587 2.45397
thorax 6.14772 -1.6283 2.73641
lowerneck 11.1907 -0.56586 4.90795
upperneck 1.68208 -0.277385 -0.813747
head -1.3811 -0.155168 -1.08484
rclavicle 9.85227e-015 -1.94809e-014
rhumerus -23.0032 0.33305 -60.1871
rradius 110.473
rwrist -55.9554
rhand 13.0391 -16.9235
rfingers 7.12502
rthumb 38.0028 -42.722
lclavicle 9.85227e-015 -1.94809e-014
lhumerus -18.8598 -11.9082 80.5459
lradius 112.711
lwrist 73.1849
lhand 29.5188 43.979
lfingers 7.12502
lthumb 53.2739 63.2964
rfemur -0.352287 -25.2755 15.3203
rtibia 63.3771
rfoot -34.9826 -14.4854
rtoes -13.3663
lfemur -9.55514 17.9561 7.88969
ltibia 63.767
lfoot -23.7152 -6.21043
ltoes -15.7086
652
root 3.56645 15.0622 -7.58555 405.367 -80.7008 -63.0035
lowerback 4.87534 -1.70392 -0.270359
upperback 8.27543 -2.72836 2.46437
thorax 6.01703 -1.61351 2.69132
lowerneck 10.8238 -0.529493 4.98839
upperneck 1.97252 -0.247207 -1.13501
head -1.22463 -0.128602 -1.20004
rclavicle -3.43276e-014 2.3059e-014
rhumerus -23.1103 2.83688 -60.6814
rradius 110.7
rwrist -53.8502
rhand 14.2738 -16.3883
rfingers 7.12502
rthumb 39.1676 -41.8601
lclavicle -3.43276e-014 2.3059e-014
lhumerus -20.14 -13.2245 81.0376
lradius 112.166
lwrist 70.3188
lhand 30.7181 44.1904
lfingers 7.12502
lthumb 54.3514 62.788
rfemur -0.309338 -24.6967 15.492
rtibia 62.1915
rfoot -34.8913 -14.8427
rtoes -12.543
lfemur -9.09839 17.7786 7.11328
ltibia 62.4425
lfoot -23.5973 -5.51576
ltoes -15.2861
